    <svg
      xmlns="http://www.w3.org/2000/svg"
      viewBox="0 0 837 979"
      width="837"
      height="979"
    >
      <g fill="#e6ae36" fill-opacity="1.00" stroke="None">
        <path
          d="
M 326.00 176.00 
C 327.21 162.27 327.36 145.67 327.00 132.00 C 326.64 118.33 321.43 107.96 319.00 95.00
C 319.00 95.00 319.24 94.30 319.00 94.00
C 316.31 90.64 315.08 86.24 314.00 82.00
C 304.32 113.48 285.39 142.09 260.00 165.00
C 248.68 176.32 235.20 187.82 225.00 200.00
C 206.83 225.43 184.15 253.09 180.00 285.00
C 178.90 293.42 175.96 302.09 175.00 310.00
C 174.77 315.92 175.67 323.23 175.00 329.00 C 174.33 334.77 178.12 341.76 174.00 345.00
C 171.33 336.71 166.07 328.91 165.00 320.00
C 157.84 289.24 162.61 258.32 169.00 228.00
C 169.68 224.78 170.93 222.13 172.00 219.00
C 173.50 214.62 175.28 210.31 177.00 206.00
C 172.59 209.68 168.60 213.73 164.00 217.00
C 131.61 239.67 106.28 280.79 91.00 315.00
C 86.67 328.52 82.58 342.92 77.00 356.00
C 60.85 420.19 63.52 487.03 85.00 549.00
C 93.03 565.24 111.96 548.92 125.78 545.78 C 139.60 542.63 157.91 534.71 172.00 532.00
C 169.49 530.81 170.80 519.28 171.00 516.00 C 171.20 512.72 169.43 502.18 171.00 499.00
C 173.44 494.06 188.21 497.63 192.00 498.00
C 199.52 498.00 209.75 498.43 217.00 498.00 C 224.25 497.57 235.45 501.17 237.00 493.00
C 237.50 487.79 235.01 478.40 238.00 474.00
C 240.57 470.22 244.95 472.70 248.00 473.00
C 262.40 473.00 275.88 473.54 290.00 473.00
C 307.89 470.84 290.01 460.48 288.00 453.00
C 286.09 445.89 307.90 453.40 308.75 447.75 C 309.60 442.09 293.91 440.15 298.00 431.00 C 302.09 421.85 294.18 412.05 300.78 405.78 C 307.38 399.51 317.60 403.19 326.00 404.00
C 328.60 403.84 331.79 404.71 333.00 402.00
C 334.29 397.09 330.76 390.53 332.00 385.00 C 333.24 379.47 332.08 373.39 334.00 368.00
C 336.37 361.34 341.78 363.25 347.00 364.00
C 351.22 364.16 354.76 365.02 359.00 365.00
C 356.58 341.74 369.57 318.57 390.00 308.00
C 392.85 306.38 402.86 302.56 404.00 299.00
C 405.17 294.29 401.25 289.35 402.78 284.78 C 404.31 280.20 408.30 279.11 410.00 275.00
C 411.12 269.50 404.82 265.41 406.00 259.00
C 407.51 255.36 412.37 252.60 415.00 250.00
C 415.68 249.21 417.15 248.54 418.00 248.00
C 412.37 242.38 411.99 235.60 415.77 228.77 C 419.55 221.94 415.15 211.83 421.00 206.00
C 421.39 203.94 421.81 202.13 422.00 200.00
C 422.51 194.38 420.86 188.18 423.00 183.00
C 426.46 183.57 425.92 189.00 426.00 192.00
C 426.03 193.67 425.97 195.33 426.00 197.00
C 427.64 208.09 433.57 219.05 436.00 230.00
C 437.96 235.66 439.54 242.77 432.00 246.00
C 433.54 251.74 441.49 254.28 443.00 260.00
C 444.55 267.01 435.87 276.66 444.75 281.25 C 453.63 285.83 442.87 298.95 450.25 302.75 C 457.62 306.56 464.61 306.97 470.25 312.75 C 475.88 318.54 479.74 321.87 483.30 328.70 C 486.87 335.52 489.47 344.17 490.00 352.00
C 491.33 359.40 492.73 362.35 500.00 362.00 C 507.27 361.65 514.03 359.44 517.00 365.00
C 523.07 376.37 518.65 393.04 518.00 405.00
C 528.42 405.26 545.32 397.26 552.00 408.00
C 555.55 414.65 555.15 428.90 553.00 436.00
C 551.43 441.17 549.01 441.44 544.00 443.00
C 542.96 443.48 541.65 444.61 540.00 444.00
C 538.50 451.41 547.72 448.44 552.00 449.00
C 556.33 449.00 560.67 449.00 565.00 449.00
C 564.51 453.40 550.80 468.51 560.23 471.77 C 569.67 475.02 582.20 470.96 592.00 473.00
C 601.45 473.00 610.71 469.56 612.00 480.00
C 612.68 485.52 610.17 498.69 618.01 498.99 C 625.85 499.30 635.96 499.00 644.00 499.00
C 647.64 498.65 657.07 496.88 661.00 498.00 C 664.93 499.12 676.99 495.27 678.00 500.00
C 678.43 500.71 678.00 503.15 678.00 504.00
C 678.52 507.79 678.46 513.74 679.00 518.00 C 679.54 522.26 676.95 530.41 679.00 534.00
C 688.63 535.79 700.17 538.86 709.25 541.75 C 718.34 544.63 727.52 549.70 736.31 552.69 C 745.09 555.69 757.11 563.24 761.03 552.02 C 764.94 540.81 767.33 535.73 771.00 525.00
C 775.47 511.93 779.10 496.32 781.00 483.00
C 781.00 461.73 783.88 437.84 782.78 416.22 C 781.68 394.61 775.99 377.49 773.00 357.00
C 761.22 314.15 736.79 275.20 709.00 240.00
C 698.00 228.10 685.26 216.97 673.00 207.00
C 672.59 208.56 673.46 209.69 674.00 211.00
C 683.75 224.66 682.25 241.24 686.78 257.22 C 691.31 273.21 688.64 294.61 685.00 310.00
C 684.55 313.49 684.07 315.76 683.00 319.00
C 681.04 324.96 679.91 331.28 677.00 337.00
C 672.89 328.60 675.28 314.46 673.00 304.00
C 669.35 286.97 661.91 270.88 657.00 254.00
C 647.94 222.87 621.37 198.63 599.75 174.25 C 578.14 149.87 549.90 129.21 538.00 99.00
C 538.00 99.00 537.95 98.49 538.00 98.00
C 534.03 93.37 534.00 85.95 531.00 81.00
C 513.97 118.33 524.58 161.34 524.00 202.00
C 511.34 189.13 501.38 173.93 490.00 160.00
C 457.36 120.48 438.71 72.72 423.00 26.00
C 409.78 93.79 370.18 151.04 324.00 202.00
C 323.70 193.16 325.25 184.54 326.00 176.00 Z"
        />
      </g>
      <g fill="#4D4231" fill-opacity="1.00" stroke="None">
        <path
          d="
M 422.00 200.00 
C 422.50 197.58 423.70 194.10 423.00 191.00
C 424.28 190.47 424.86 191.97 426.00 192.00
C 425.92 189.00 426.46 183.57 423.00 183.00
C 420.86 188.18 422.51 194.38 422.00 200.00 Z"
        />
      </g>
      <g fill="#101b22" fill-opacity="1.00" stroke="None">
        <path
          d="
M 422.00 200.00 
C 421.81 202.13 421.39 203.94 421.00 206.00
C 419.43 214.20 422.94 223.23 417.69 230.69 C 412.45 238.15 418.93 242.06 420.07 248.08 C 421.21 254.09 404.81 256.92 408.02 264.03 C 411.24 271.13 414.86 275.83 410.00 283.00
C 408.05 278.92 406.88 285.59 404.00 286.00
C 404.73 290.20 407.21 294.58 406.99 299.01 C 406.77 303.43 397.47 302.38 400.00 307.00
C 397.73 306.41 396.10 307.85 394.00 308.00
C 393.62 307.92 395.50 311.02 396.00 311.00
C 388.59 308.95 382.95 323.16 379.00 319.00
C 372.25 324.71 369.38 330.50 365.01 339.01 C 360.63 347.52 362.60 359.63 358.00 368.00
C 346.55 363.61 335.34 362.65 335.00 376.00 C 334.66 389.36 336.28 396.28 333.00 408.00
C 324.80 408.99 311.02 400.28 303.26 406.26 C 295.49 412.24 303.43 428.31 299.00 436.00
C 303.52 441.59 315.56 442.77 308.00 452.00
C 302.84 453.70 298.06 451.08 293.00 453.00
C 293.50 456.40 296.50 460.35 300.00 461.00
C 302.13 469.27 298.78 472.72 291.00 474.00 C 283.22 475.28 274.53 476.10 267.00 476.00 C 259.47 475.90 248.48 472.45 242.00 475.00 C 235.52 477.55 240.83 493.43 240.00 498.00
C 230.79 504.68 218.21 497.97 207.00 500.00 C 195.79 502.03 180.10 495.52 172.00 504.00
C 170.93 512.87 172.80 522.10 172.00 531.00
C 173.28 531.28 175.50 530.24 176.00 532.00
C 189.96 529.82 208.31 531.07 222.00 532.00 C 235.69 532.93 248.78 536.24 260.98 540.02 C 273.18 543.80 283.77 547.98 294.77 553.23 C 305.77 558.48 315.18 564.49 324.75 571.25 C 334.33 578.01 342.19 584.34 350.75 592.25 C 359.31 600.16 366.10 607.84 373.25 616.75 C 380.40 625.67 386.84 635.19 393.08 644.92 C 399.32 654.66 403.44 665.71 409.08 675.92 C 414.72 686.13 418.57 700.35 422.00 710.00
C 428.63 684.10 442.34 659.35 457.23 637.23 C 472.12 615.11 487.40 599.53 508.25 581.25 C 529.10 562.96 550.21 553.49 576.93 542.93 C 603.65 532.36 642.08 533.00 672.00 533.00
C 672.50 533.00 673.50 533.00 674.00 533.00
C 679.96 524.77 673.63 510.42 676.00 501.00
C 674.00 501.00 672.00 501.00 670.00 501.00
C 653.05 499.99 628.71 505.61 614.00 500.00
C 612.28 499.34 611.84 497.87 610.00 499.00
C 611.19 491.24 607.45 484.15 609.00 477.00
C 601.91 476.55 594.27 474.42 587.00 475.00 C 579.73 475.58 570.07 472.27 563.00 474.00 C 555.93 475.73 549.48 464.65 556.26 459.26 C 563.03 453.87 558.02 447.77 551.00 451.00 C 543.97 454.23 532.87 450.52 536.00 444.00 C 539.13 437.48 552.36 444.61 551.00 434.00 C 549.64 423.39 554.10 420.26 552.00 410.00
C 552.00 409.50 552.00 409.00 552.00 409.00
C 544.89 404.37 538.29 401.08 528.78 405.78 C 519.26 410.48 513.59 404.85 516.99 395.99 C 520.39 387.13 518.36 377.25 516.02 368.98 C 513.69 360.70 495.67 367.06 490.00 365.00
C 484.20 355.32 488.72 335.78 480.08 327.92 C 471.44 320.05 469.91 309.00 454.98 307.02 C 440.04 305.05 451.47 282.90 438.00 278.00
C 436.97 272.33 440.65 268.01 442.00 263.00
C 442.14 257.07 427.11 251.47 430.78 244.78 C 434.46 238.08 436.05 230.76 432.00 223.00 C 427.96 215.24 426.45 206.02 426.00 197.00
C 425.97 195.33 426.03 193.67 426.00 192.00
C 424.86 191.97 424.28 190.47 423.00 191.00
C 423.70 194.10 422.50 197.58 422.00 200.00 Z"
        />
      </g>
      <g fill="#302E23" fill-opacity="1.00" stroke="None">
        <path
          d="
M 552.00 409.00 
C 552.00 408.50 552.00 408.00 552.00 408.00
C 545.32 397.26 528.42 405.26 518.00 405.00
C 518.65 393.04 523.07 376.37 517.00 365.00
C 513.15 359.71 506.67 363.33 499.00 363.00 C 491.33 362.67 490.62 361.06 490.00 352.00
C 489.47 344.17 486.87 335.52 483.30 328.70 C 479.74 321.87 475.88 318.54 470.25 312.75 C 464.61 306.97 457.62 306.56 450.25 302.75 C 442.87 298.95 453.63 285.83 444.75 281.25 C 435.87 276.66 444.55 267.01 443.00 260.00
C 441.57 255.30 433.82 251.83 431.00 248.00
C 435.10 242.65 439.07 237.31 436.00 230.00
C 433.57 219.05 427.64 208.09 426.00 197.00
C 426.45 206.02 427.96 215.24 432.00 223.00 C 436.05 230.76 434.46 238.08 430.78 244.78 C 427.11 251.47 442.14 257.07 442.00 263.00
C 440.65 268.01 436.97 272.33 438.00 278.00
C 451.47 282.90 440.04 305.05 454.98 307.02 C 469.91 309.00 471.44 320.05 480.08 327.92 C 488.72 335.78 484.20 355.32 490.00 365.00
C 495.67 367.06 513.69 360.70 516.02 368.98 C 518.36 377.25 520.39 387.13 516.99 395.99 C 513.59 404.85 519.26 410.48 528.78 405.78 C 538.29 401.08 544.89 404.37 552.00 409.00 Z"
        />
      </g>
      <g fill="#F1E6D2" fill-opacity="1.00" stroke="None">
        <path
          d="
M 91.00 315.00 
C 106.28 280.79 131.61 239.67 164.00 217.00
C 169.02 212.88 172.79 206.19 179.00 204.00
C 176.97 209.01 175.33 214.79 172.00 219.00
C 170.93 222.13 169.68 224.78 169.00 228.00
C 172.84 219.50 181.23 210.14 181.00 202.00
C 178.67 200.39 175.72 201.17 173.00 201.00
C 170.34 210.35 159.81 216.32 153.59 223.25 C 147.37 230.17 139.19 237.85 133.10 245.10 C 127.00 252.34 120.03 262.66 112.00 267.00
C 115.65 270.08 108.27 274.10 109.00 279.00
C 105.34 276.86 105.27 281.95 102.00 283.00
C 108.17 284.27 100.98 292.86 98.78 297.78 C 96.58 302.70 92.73 309.60 91.00 315.00 Z"
        />
      </g>
      <g fill="#F0E2CF" fill-opacity="1.00" stroke="None">
        <path
          d="
M 685.00 310.00 
C 688.64 294.61 691.31 273.21 686.78 257.22 C 682.25 241.24 683.75 224.66 674.00 211.00
C 672.53 208.94 669.91 207.05 670.00 204.00
C 684.69 211.74 696.43 227.99 709.00 240.00
C 736.79 275.20 761.22 314.15 773.00 357.00
C 771.62 347.91 767.44 339.43 764.98 331.02 C 762.51 322.62 756.77 315.09 757.00 307.00
C 750.31 302.46 746.41 289.69 741.92 282.08 C 737.43 274.47 729.84 268.19 730.00 259.00
C 724.59 263.20 724.95 252.10 723.00 249.00
C 720.48 255.66 717.02 243.14 712.08 239.92 C 707.15 236.70 702.34 229.77 698.70 225.30 C 695.06 220.84 686.60 218.24 683.26 212.74 C 679.92 207.25 675.58 201.79 669.00 201.00
C 669.59 212.34 677.95 220.38 680.02 232.98 C 682.10 245.57 684.43 256.41 686.00 269.00 C 687.57 281.58 686.64 297.37 685.00 310.00 Z"
        />
      </g>
      <g fill="#CDB998" fill-opacity="1.00" stroke="None">
        <path
          d="
M 164.00 217.00 
C 168.60 213.73 172.59 209.68 177.00 206.00
C 175.28 210.31 173.50 214.62 172.00 219.00
C 175.33 214.79 176.97 209.01 179.00 204.00
C 172.79 206.19 169.02 212.88 164.00 217.00 Z"
        />
      </g>
      <g fill="#D5BCA0" fill-opacity="1.00" stroke="None">
        <path
          d="
M 674.00 211.00 
C 673.46 209.69 672.59 208.56 673.00 207.00
C 685.26 216.97 698.00 228.10 709.00 240.00
C 696.43 227.99 684.69 211.74 670.00 204.00
C 669.91 207.05 672.53 208.94 674.00 211.00 Z"
        />
      </g>
      <g fill="#2D2A22" fill-opacity="1.00" stroke="None">
        <path
          d="
M 415.00 250.00 
C 412.44 252.98 409.22 255.83 407.00 259.00
C 406.88 264.57 411.71 270.87 410.00 275.00
C 408.30 279.11 404.31 280.20 402.78 284.78 C 401.25 289.35 405.17 294.29 404.00 299.00
C 402.72 304.14 393.87 306.37 390.00 308.00
C 369.57 318.57 356.58 341.74 359.00 365.00
C 354.76 365.02 351.22 364.16 347.00 364.00
C 342.12 363.81 336.28 363.01 334.00 368.00
C 332.08 373.39 333.24 379.47 332.00 385.00 C 330.76 390.53 334.29 397.09 333.00 402.00
C 332.75 402.94 333.20 404.05 333.00 405.00
C 330.81 404.47 327.38 406.14 326.00 404.00
C 317.60 403.19 307.38 399.51 300.78 405.78 C 294.18 412.05 302.09 421.85 298.00 431.00 C 293.91 440.15 309.60 442.09 308.75 447.75 C 307.90 453.40 286.09 445.89 288.00 453.00
C 290.06 458.48 295.70 456.54 297.77 463.23 C 299.84 469.92 297.97 472.70 290.00 473.00
C 275.88 473.54 262.40 473.00 248.00 473.00
C 245.41 473.00 239.94 471.96 238.00 474.00
C 235.01 478.40 237.50 487.79 237.00 493.00
C 235.93 504.07 217.82 497.73 208.00 499.00 C 198.18 500.27 182.37 498.05 172.00 499.00
C 172.00 500.67 172.00 502.33 172.00 504.00
C 180.10 495.52 195.79 502.03 207.00 500.00 C 218.21 497.97 230.79 504.68 240.00 498.00
C 240.83 493.43 235.52 477.55 242.00 475.00 C 248.48 472.45 259.47 475.90 267.00 476.00 C 274.53 476.10 283.22 475.28 291.00 474.00 C 298.78 472.72 302.13 469.27 300.00 461.00
C 296.50 460.35 293.50 456.40 293.00 453.00
C 298.06 451.08 302.84 453.70 308.00 452.00
C 315.56 442.77 303.52 441.59 299.00 436.00
C 303.43 428.31 295.49 412.24 303.26 406.26 C 311.02 400.28 324.80 408.99 333.00 408.00
C 336.28 396.28 334.66 389.36 335.00 376.00 C 335.34 362.65 346.55 363.61 358.00 368.00
C 362.60 359.63 360.63 347.52 365.01 339.01 C 369.38 330.50 372.25 324.71 379.00 319.00
C 384.25 314.56 387.33 310.31 394.00 308.00
C 396.10 307.85 397.73 306.41 400.00 307.00
C 397.47 302.38 406.77 303.43 406.99 299.01 C 407.21 294.58 404.73 290.20 404.00 286.00
C 406.88 285.59 408.05 278.92 410.00 283.00
C 414.86 275.83 411.24 271.13 408.02 264.03 C 404.81 256.92 421.21 254.09 420.07 248.08 C 418.93 242.06 412.45 238.15 417.69 230.69 C 422.94 223.23 419.43 214.20 421.00 206.00
C 415.15 211.83 419.55 221.94 415.77 228.77 C 411.99 235.60 412.37 242.38 418.00 248.00
C 417.15 248.54 415.68 249.21 415.00 250.00 Z"
        />
      </g>
      <g fill="#8E7E5F" fill-opacity="1.00" stroke="None">
        <path
          d="
M 443.00 260.00 
C 441.49 254.28 433.54 251.74 432.00 246.00
C 439.54 242.77 437.96 235.66 436.00 230.00
C 439.07 237.31 435.10 242.65 431.00 248.00
C 433.82 251.83 441.57 255.30 443.00 260.00 Z"
        />
      </g>
      <g fill="#928066" fill-opacity="1.00" stroke="None">
        <path
          d="
M 406.00 259.00 
C 406.02 258.91 407.00 259.00 407.00 259.00
C 409.22 255.83 412.44 252.98 415.00 250.00
C 412.37 252.60 407.51 255.36 406.00 259.00 Z"
        />
      </g>
      <g fill="#CAB190" fill-opacity="1.00" stroke="None">
        <path
          d="
M 673.00 304.00 
C 670.94 286.05 664.03 269.91 657.00 254.00
C 661.91 270.88 669.35 286.97 673.00 304.00 Z"
        />
      </g>
      <g fill="#584E38" fill-opacity="1.00" stroke="None">
        <path
          d="
M 410.00 275.00 
C 411.71 270.87 406.88 264.57 407.00 259.00
C 407.00 259.00 406.02 258.91 406.00 259.00
C 404.82 265.41 411.12 269.50 410.00 275.00 Z"
        />
      </g>
      <g fill="#CCB796" fill-opacity="1.00" stroke="None">
        <path
          d="
M 175.00 310.00 
C 175.96 302.09 178.90 293.42 180.00 285.00
C 177.79 293.04 175.34 300.99 175.00 310.00 Z"
        />
      </g>
      <g fill="#584935" fill-opacity="1.00" stroke="None">
        <path
          d="
M 390.00 308.00 
C 393.87 306.37 402.72 304.14 404.00 299.00
C 402.86 302.56 392.85 306.38 390.00 308.00 Z"
        />
      </g>
      <g fill="#1A2438" fill-opacity="1.00" stroke="None">
        <path
          d="
M 379.00 319.00 
C 382.95 323.16 388.59 308.95 396.00 311.00
C 395.50 311.02 393.62 307.92 394.00 308.00
C 387.33 310.31 384.25 314.56 379.00 319.00 Z"
        />
      </g>
      <g fill="#71644A" fill-opacity="1.00" stroke="None">
        <path
          d="
M 517.00 365.00 
C 514.03 359.44 507.27 361.65 500.00 362.00 C 492.73 362.35 491.33 359.40 490.00 352.00
C 490.62 361.06 491.33 362.67 499.00 363.00 C 506.67 363.33 513.15 359.71 517.00 365.00 Z"
        />
      </g>
      <g fill="#F0E6D0" fill-opacity="1.00" stroke="None">
        <path
          d="
M 85.00 549.00 
C 63.52 487.03 60.85 420.19 77.00 356.00
C 73.99 361.17 72.79 370.76 70.00 376.00 C 67.21 381.23 70.34 395.58 64.00 392.00
C 64.25 407.16 64.56 423.34 64.00 439.00 C 63.44 454.66 64.91 469.88 66.22 484.78 C 67.53 499.67 72.53 508.38 72.00 523.00
C 77.62 522.34 73.21 527.94 78.01 534.99 C 82.81 542.04 81.81 559.17 92.00 559.00
C 87.99 557.47 86.35 552.89 85.00 549.00 Z"
        />
      </g>
      <g fill="#675841" fill-opacity="1.00" stroke="None">
        <path
          d="
M 334.00 368.00 
C 336.28 363.01 342.12 363.81 347.00 364.00
C 341.78 363.25 336.37 361.34 334.00 368.00 Z"
        />
      </g>
      <g fill="#847D62" fill-opacity="1.00" stroke="None">
        <path
          d="
M 326.00 404.00 
C 327.38 406.14 330.81 404.47 333.00 405.00
C 333.20 404.05 332.75 402.94 333.00 402.00
C 331.79 404.71 328.60 403.84 326.00 404.00 Z"
        />
      </g>
      <g fill="#9B8D6C" fill-opacity="1.00" stroke="None">
        <path
          d="
M 552.00 409.00 
C 552.00 409.00 552.00 409.50 552.00 410.00
C 554.99 414.04 553.91 430.63 553.00 436.00
C 555.15 428.90 555.55 414.65 552.00 408.00
C 552.00 408.00 552.00 408.50 552.00 409.00 Z"
        />
      </g>
      <g fill="#2E2D26" fill-opacity="1.00" stroke="None">
        <path
          d="
M 614.00 500.00 
C 632.17 502.87 652.40 498.02 670.00 501.00
C 672.00 501.00 674.00 501.00 676.00 501.00
C 673.63 510.42 679.96 524.77 674.00 533.00
C 674.68 533.00 676.40 533.29 677.00 533.00
C 677.74 522.07 676.01 510.91 677.00 500.00
C 673.17 497.17 666.02 499.51 661.00 499.00 C 655.98 498.49 649.18 499.00 644.00 499.00
C 635.96 499.00 625.85 499.30 618.01 498.99 C 610.17 498.69 612.68 485.52 612.00 480.00
C 611.67 478.52 610.20 476.14 611.00 474.00
C 604.84 473.34 597.34 475.32 592.00 473.00
C 582.20 470.96 569.67 475.02 560.23 471.77 C 550.80 468.51 564.51 453.40 565.00 449.00
C 560.67 449.00 556.33 449.00 552.00 449.00
C 548.74 449.32 544.38 452.71 540.33 449.67 C 536.28 446.63 540.92 443.96 544.00 443.00
C 549.01 441.44 551.43 441.17 553.00 436.00
C 553.91 430.63 554.99 414.04 552.00 410.00
C 554.10 420.26 549.64 423.39 551.00 434.00 C 552.36 444.61 539.13 437.48 536.00 444.00 C 532.87 450.52 543.97 454.23 551.00 451.00 C 558.02 447.77 563.03 453.87 556.26 459.26 C 549.48 464.65 555.93 475.73 563.00 474.00 C 570.07 472.27 579.73 475.58 587.00 475.00 C 594.27 474.42 601.91 476.55 609.00 477.00
C 607.45 484.15 611.19 491.24 610.00 499.00
C 611.84 497.87 612.28 499.34 614.00 500.00 Z"
        />
      </g>
      <g fill="#776B48" fill-opacity="1.00" stroke="None">
        <path
          d="
M 552.00 449.00 
C 547.72 448.44 538.50 451.41 540.00 444.00
C 541.65 444.61 542.96 443.48 544.00 443.00
C 540.92 443.96 536.28 446.63 540.33 449.67 C 544.38 452.71 548.74 449.32 552.00 449.00 Z"
        />
      </g>
      <g fill="#554A37" fill-opacity="1.00" stroke="None">
        <path
          d="
M 290.00 473.00 
C 297.97 472.70 299.84 469.92 297.77 463.23 C 295.70 456.54 290.06 458.48 288.00 453.00
C 290.01 460.48 307.89 470.84 290.00 473.00 Z"
        />
      </g>
      <g fill="#73674C" fill-opacity="1.00" stroke="None">
        <path
          d="
M 238.00 474.00 
C 239.94 471.96 245.41 473.00 248.00 473.00
C 244.95 472.70 240.57 470.22 238.00 474.00 Z"
        />
      </g>
      <g fill="#59503F" fill-opacity="1.00" stroke="None">
        <path
          d="
M 612.00 480.00 
C 610.71 469.56 601.45 473.00 592.00 473.00
C 597.34 475.32 604.84 473.34 611.00 474.00
C 610.20 476.14 611.67 478.52 612.00 480.00 Z"
        />
      </g>
      <g fill="#EBDCC6" fill-opacity="1.00" stroke="None">
        <path
          d="
M 771.00 525.00 
C 777.42 512.70 781.00 497.81 781.00 483.00
C 779.10 496.32 775.47 511.93 771.00 525.00 Z"
        />
      </g>
      <g fill="#5B503C" fill-opacity="1.00" stroke="None">
        <path
          d="
M 192.00 498.00 
C 188.28 498.00 173.21 495.87 171.00 499.00
C 169.43 502.18 171.20 512.72 171.00 516.00 C 170.80 519.28 169.49 530.81 172.00 532.00
C 173.28 531.75 174.70 532.13 176.00 532.00
C 175.50 530.24 173.28 531.28 172.00 531.00
C 172.80 522.10 170.93 512.87 172.00 504.00
C 172.00 502.33 172.00 500.67 172.00 499.00
C 182.37 498.05 198.18 500.27 208.00 499.00 C 217.82 497.73 235.93 504.07 237.00 493.00
C 235.45 501.17 224.25 497.57 217.00 498.00 C 209.75 498.43 199.52 498.00 192.00 498.00 Z"
        />
      </g>
      <g fill="#9F9172" fill-opacity="1.00" stroke="None">
        <path
          d="
M 171.00 499.00 
C 173.21 495.87 188.28 498.00 192.00 498.00
C 188.21 497.63 173.44 494.06 171.00 499.00 Z"
        />
      </g>
      <g fill="#6B5C47" fill-opacity="1.00" stroke="None">
        <path
          d="
M 644.00 499.00 
C 649.18 499.00 655.98 498.49 661.00 499.00 C 666.02 499.51 673.17 497.17 677.00 500.00
C 677.32 500.24 678.00 500.00 678.00 500.00
C 676.99 495.27 664.93 499.12 661.00 498.00 C 657.07 496.88 647.64 498.65 644.00 499.00 Z"
        />
      </g>
      <g fill="#1C1D26" fill-opacity="1.00" stroke="None">
        <path
          d="
M 670.00 501.00 
C 652.40 498.02 632.17 502.87 614.00 500.00
C 628.71 505.61 653.05 499.99 670.00 501.00 Z"
        />
      </g>
      <g fill="#49432C" fill-opacity="1.00" stroke="None">
        <path
          d="
M 677.00 533.00 
C 679.96 531.54 677.44 522.47 678.00 519.00 C 678.56 515.53 678.00 507.85 678.00 504.00
C 678.00 503.15 678.43 500.71 678.00 500.00
C 678.00 500.00 677.32 500.24 677.00 500.00
C 676.01 510.91 677.74 522.07 677.00 533.00 Z"
        />
      </g>
      <g fill="#998D6E" fill-opacity="1.00" stroke="None">
        <path
          d="
M 677.00 533.00 
C 676.40 533.29 674.68 533.00 674.00 533.00
C 673.50 533.00 672.50 533.00 672.00 533.00
C 673.38 533.13 677.06 533.64 679.00 534.00
C 676.95 530.41 679.54 522.26 679.00 518.00 C 678.46 513.74 678.52 507.79 678.00 504.00
C 678.00 507.85 678.56 515.53 678.00 519.00 C 677.44 522.47 679.96 531.54 677.00 533.00 Z"
        />
      </g>
      <g fill="#CCE1EC" fill-opacity="1.00" stroke="None">
        <path
          d="
M 41.00 581.00 
C 40.79 579.46 40.26 574.31 41.00 573.00
C 41.57 572.00 46.98 576.53 48.75 578.25 C 50.52 579.97 55.75 583.82 58.00 585.00
C 79.50 594.06 102.78 588.17 125.00 585.00
C 135.18 582.48 146.19 580.54 157.00 579.00
C 182.67 575.33 210.04 572.72 236.00 578.00
C 227.30 575.18 218.11 573.86 209.00 573.00 C 199.89 572.14 188.15 573.79 179.02 574.02 C 169.90 574.26 161.30 577.77 152.22 578.22 C 143.15 578.68 135.97 581.76 127.00 582.00 C 118.03 582.24 108.55 586.23 100.00 587.00 C 91.46 587.78 79.09 590.30 71.22 586.78 C 63.35 583.25 55.63 584.34 49.75 577.25 C 43.88 570.15 36.85 569.50 41.00 581.00 Z"
        />
      </g>
      <g fill="#8AB1BD" fill-opacity="1.00" stroke="None">
        <path
          d="
M 41.00 573.00 
C 46.27 577.90 51.60 582.30 58.00 585.00
C 55.75 583.82 50.52 579.97 48.75 578.25 C 46.98 576.53 41.57 572.00 41.00 573.00 Z"
        />
      </g>
      <g fill="#CADFE8" fill-opacity="1.00" stroke="None">
        <path
          d="
M 739.00 587.00 
C 762.15 591.15 787.93 589.17 806.00 573.00
C 807.27 582.67 802.63 590.80 802.00 600.00
C 803.94 592.76 815.81 570.65 800.00 572.00
C 800.02 576.01 794.05 577.68 792.02 580.02 C 790.00 582.37 780.69 580.59 785.00 584.00
C 770.16 586.50 754.70 588.07 739.00 587.00 Z"
        />
      </g>
      <g fill="#2a94cc" fill-opacity="1.00" stroke="None">
        <path
          d="
M 41.00 581.00 
C 44.91 591.83 45.38 603.23 48.68 614.32 C 51.97 625.41 54.19 634.73 58.08 645.92 C 61.96 657.12 65.69 663.09 69.70 675.30 C 73.71 687.52 85.02 685.52 96.32 682.32 C 107.63 679.12 118.63 677.74 129.98 674.98 C 141.32 672.22 152.47 670.14 164.00 668.00 C 175.53 665.86 187.95 663.24 200.00 663.00
C 223.51 660.16 247.50 660.00 272.00 660.00
C 283.66 660.00 293.77 662.54 304.00 666.00
C 306.43 666.55 307.21 667.24 309.00 668.00
C 341.52 677.56 371.45 694.68 397.00 718.00
C 397.67 715.10 395.01 713.06 394.00 711.00
C 394.37 712.34 394.84 713.56 395.00 715.00
C 392.37 714.44 390.14 709.02 394.00 709.00
C 385.00 676.50 358.85 648.17 333.23 624.77 C 307.61 601.37 269.44 584.81 236.00 578.00
C 210.04 572.72 182.67 575.33 157.00 579.00
C 146.77 581.54 135.89 583.44 125.00 585.00
C 102.78 588.17 79.50 594.06 58.00 585.00
C 51.60 582.30 46.27 577.90 41.00 573.00
C 40.26 574.31 40.79 579.46 41.00 581.00 Z"
        />
      </g>
      <g fill="#2a94cc" fill-opacity="1.00" stroke="None">
        <path
          d="
M 739.00 587.00 
C 694.19 583.95 651.17 567.74 605.00 579.00
C 570.43 587.43 538.82 602.07 510.77 624.77 C 482.72 647.47 465.17 673.99 451.00 705.00
C 450.98 705.95 452.76 708.63 453.00 710.00
C 451.07 710.66 450.33 713.39 448.00 713.00
C 449.35 715.72 454.83 708.13 457.25 707.25 C 459.67 706.37 464.40 701.27 467.00 700.00
C 467.00 700.00 467.56 700.16 468.00 700.00
C 476.21 691.43 487.66 687.52 498.08 682.08 C 508.51 676.64 521.41 670.74 533.00 668.00
C 547.22 662.75 563.05 660.00 579.00 660.00
C 579.50 660.00 580.50 660.00 581.00 660.00
C 592.97 654.91 613.96 659.83 626.00 661.00
C 638.10 661.00 650.20 664.95 662.00 666.00 C 673.80 667.05 685.52 670.38 696.98 672.02 C 708.43 673.67 720.26 676.95 731.33 678.67 C 742.40 680.39 755.18 683.99 765.93 684.07 C 776.67 684.15 777.52 669.66 782.08 661.08 C 786.63 652.49 789.73 640.73 793.22 631.22 C 796.72 621.72 800.66 610.28 802.00 600.00
C 802.63 590.80 807.27 582.67 806.00 573.00
C 787.93 589.17 762.15 591.15 739.00 587.00 Z"
        />
      </g>
      <g fill="#D1E4F0" fill-opacity="1.00" stroke="None">
        <path
          d="
M 467.00 700.00 
C 464.40 701.27 459.67 706.37 457.25 707.25 C 454.83 708.13 449.35 715.72 448.00 713.00
C 446.80 710.58 450.23 706.69 451.00 705.00
C 465.17 673.99 482.72 647.47 510.77 624.77 C 538.82 602.07 570.43 587.43 605.00 579.00
C 606.72 576.52 611.09 577.94 613.00 576.00
C 607.29 574.60 600.99 575.40 596.01 578.01 C 591.03 580.61 583.44 577.05 585.00 582.00
C 577.99 580.65 571.61 585.88 565.89 587.89 C 560.18 589.90 555.26 593.72 550.08 595.08 C 544.90 596.44 539.43 603.14 534.68 604.68 C 529.93 606.22 522.62 615.54 526.00 608.00
C 523.68 609.67 522.03 610.15 519.81 611.74 C 517.59 613.33 524.63 611.08 523.00 614.00
C 520.08 614.08 514.55 612.58 519.00 616.00
C 513.60 618.69 506.36 621.46 505.00 628.00
C 497.12 628.59 494.97 638.69 487.08 644.08 C 479.19 649.48 475.39 657.98 469.25 665.25 C 463.11 672.51 459.45 679.55 455.78 688.78 C 452.10 698.00 445.82 704.24 447.00 715.00
C 453.57 711.41 462.32 706.69 467.00 700.00 Z"
        />
      </g>
      <g fill="#87AFC3" fill-opacity="1.00" stroke="None">
        <path
          d="
M 125.00 585.00 
C 135.89 583.44 146.77 581.54 157.00 579.00
C 146.19 580.54 135.18 582.48 125.00 585.00 Z"
        />
      </g>
      <g fill="#D5E2EF" fill-opacity="1.00" stroke="None">
        <path
          d="
M 200.00 663.00 
C 231.61 662.37 262.69 661.69 294.00 664.00
C 287.37 662.64 278.70 660.65 272.00 660.00
C 247.50 660.00 223.51 660.16 200.00 663.00 Z"
        />
      </g>
      <g fill="#8DAEC5" fill-opacity="1.00" stroke="None">
        <path
          d="
M 581.00 660.00 
C 592.63 660.00 605.15 659.95 616.00 661.00
C 619.33 661.00 622.67 661.00 626.00 661.00
C 613.96 659.83 592.97 654.91 581.00 660.00 Z"
        />
      </g>
      <g fill="#90AFC5" fill-opacity="1.00" stroke="None">
        <path
          d="
M 294.00 664.00 
C 295.98 664.15 297.23 664.58 299.00 665.00
C 300.70 665.40 302.28 665.61 304.00 666.00
C 293.77 662.54 283.66 660.00 272.00 660.00
C 278.70 660.65 287.37 662.64 294.00 664.00 Z"
        />
      </g>
      <g fill="#94B6CB" fill-opacity="1.00" stroke="None">
        <path
          d="
M 533.00 668.00 
C 544.30 665.33 555.27 663.38 567.00 662.00
C 570.88 661.54 574.78 661.00 579.00 661.00
C 578.96 661.00 579.00 660.00 579.00 660.00
C 563.05 660.00 547.22 662.75 533.00 668.00 Z"
        />
      </g>
      <g fill="#CBD9EA" fill-opacity="1.00" stroke="None">
        <path
          d="
M 579.00 661.00 
C 591.33 661.00 603.67 661.00 616.00 661.00
C 605.15 659.95 592.63 660.00 581.00 660.00
C 580.50 660.00 579.50 660.00 579.00 660.00
C 579.00 660.00 578.96 661.00 579.00 661.00 Z"
        />
      </g>
      <g fill="#CFE1ED" fill-opacity="1.00" stroke="None">
        <path
          d="
M 533.00 668.00 
C 521.41 670.74 508.51 676.64 498.08 682.08 C 487.66 687.52 476.21 691.43 468.00 700.00
C 474.63 697.61 480.18 694.02 486.30 690.30 C 492.42 686.59 499.36 684.77 505.77 681.77 C 512.18 678.77 517.97 675.08 524.93 672.93 C 531.88 670.77 539.91 668.29 546.93 666.93 C 553.94 665.57 563.52 663.55 567.00 662.00
C 555.27 663.38 544.30 665.33 533.00 668.00 Z"
        />
      </g>
      <g fill="#C8DFED" fill-opacity="1.00" stroke="None">
        <path
          d="
M 309.00 668.00 
C 307.21 667.24 306.43 666.55 304.00 666.00
C 302.28 665.61 300.70 665.40 299.00 665.00
C 302.22 666.14 305.33 667.23 309.00 668.00 Z"
        />
      </g>
      <g fill="#868E96" fill-opacity="1.00" stroke="None">
        <path
          d="
M 246.00 686.00 
C 253.67 686.00 261.33 686.00 269.00 686.00
C 261.83 685.31 253.24 685.30 246.00 686.00 Z"
        />
      </g>
      <g fill="#1A2C39" fill-opacity="1.00" stroke="None">
        <path
          d="
M 387.00 773.00 
C 392.01 777.29 396.41 782.41 401.00 787.00
C 404.01 790.01 407.96 792.77 409.00 797.00
C 410.67 796.76 409.17 794.15 411.00 794.00
C 400.25 764.88 388.57 737.85 360.75 719.25 C 332.93 700.65 303.52 686.00 269.00 686.00
C 261.33 686.00 253.67 686.00 246.00 686.00
C 191.98 688.50 140.89 702.33 89.00 713.00
C 93.17 725.40 101.25 735.20 107.23 746.77 C 113.21 758.35 121.14 766.28 128.75 777.25 C 136.36 788.23 145.41 798.11 158.78 791.78 C 172.14 785.45 186.08 785.63 198.92 779.92 C 211.76 774.22 222.65 770.97 234.92 764.92 C 247.20 758.88 257.49 753.35 270.33 748.33 C 283.17 743.31 300.12 741.26 314.00 743.00 C 327.88 744.74 343.74 746.93 355.77 753.23 C 367.80 759.53 376.82 764.30 387.00 773.00 Z"
        />
      </g>
      <g fill="#1A2C3A" fill-opacity="1.00" stroke="None">
        <path
          d="
M 475.00 724.00 
C 470.41 728.59 465.54 733.46 461.00 738.00
C 447.43 753.88 438.77 771.72 432.00 791.00
C 432.11 791.90 434.45 794.24 435.00 795.00
C 445.02 782.92 454.37 772.49 467.77 763.77 C 481.17 755.05 496.29 748.90 512.32 745.32 C 528.35 741.74 553.80 740.19 569.77 745.23 C 585.74 750.26 598.33 758.33 612.98 765.03 C 627.62 771.72 644.05 777.28 658.77 782.23 C 673.49 787.17 693.25 798.69 704.75 785.75 C 716.25 772.81 724.25 764.63 733.25 751.25 C 742.25 737.86 750.91 726.67 757.00 712.00
C 666.91 697.27 554.32 656.22 475.00 724.00 Z"
        />
      </g>
      <g fill="#5C6E7D" fill-opacity="1.00" stroke="None">
        <path
          d="
M 448.00 713.00 
C 450.33 713.39 451.07 710.66 453.00 710.00
C 452.76 708.63 450.98 705.95 451.00 705.00
C 450.23 706.69 446.80 710.58 448.00 713.00 Z"
        />
      </g>
      <g fill="#5B7888" fill-opacity="1.00" stroke="None">
        <path
          d="
M 394.00 711.00 
C 393.87 710.54 394.13 709.46 394.00 709.00
C 390.14 709.02 392.37 714.44 395.00 715.00
C 394.84 713.56 394.37 712.34 394.00 711.00 Z"
        />
      </g>
      <g fill="#758085" fill-opacity="1.00" stroke="None">
        <path
          d="
M 461.00 738.00 
C 465.54 733.46 470.41 728.59 475.00 724.00
C 470.07 728.21 465.25 733.02 461.00 738.00 Z"
        />
      </g>
      <g fill="#7E888E" fill-opacity="1.00" stroke="None">
        <path
          d="
M 401.00 787.00 
C 396.41 782.41 392.01 777.29 387.00 773.00
C 391.54 777.54 396.42 782.42 401.00 787.00 Z"
        />
      </g>
      <g fill="#4B4F4E" fill-opacity="1.00" stroke="None">
        <path
          d="
M 411.00 801.00 
C 411.97 801.79 413.09 801.04 413.00 801.00
C 412.20 798.76 411.83 796.25 411.00 794.00
C 409.17 794.15 410.67 796.76 409.00 797.00
C 407.96 792.77 404.01 790.01 401.00 787.00
C 404.92 790.92 408.10 796.32 411.00 801.00 Z"
        />
      </g>
      <g fill="#373C39" fill-opacity="1.00" stroke="None">
        <path
          d="
M 435.00 795.00 
C 434.45 794.24 432.11 791.90 432.00 791.00
C 431.44 794.50 428.07 799.01 430.00 802.00
C 431.44 799.50 433.27 797.37 435.00 795.00 Z"
        />
      </g>
      <g fill="#A3A39F" fill-opacity="1.00" stroke="None">
        <path
          d="
M 413.00 801.00 
C 413.09 801.04 411.97 801.79 411.00 801.00
C 412.36 802.64 412.99 805.02 415.00 806.00
C 415.98 803.83 413.49 802.38 413.00 801.00 Z"
        />
      </g>
      <g fill="#91959A" fill-opacity="1.00" stroke="None">
        <path
          d="
M 290.00 809.00 
C 300.67 809.00 311.33 809.00 322.00 809.00
C 312.01 808.03 300.06 808.03 290.00 809.00 Z"
        />
      </g>
      <g fill="#757B80" fill-opacity="1.00" stroke="None">
        <path
          d="
M 269.00 810.00 
C 272.75 810.00 276.99 809.29 280.00 809.00
C 276.25 809.00 272.08 809.70 269.00 810.00 Z"
        />
      </g>
      <g fill="#1B2D39" fill-opacity="1.00" stroke="None">
        <path
          d="
M 269.00 810.00 
C 235.05 809.92 202.59 815.72 169.00 817.00
C 195.34 841.66 224.09 862.41 257.93 877.07 C 291.76 891.74 334.74 910.00 373.00 910.00
C 383.14 910.00 393.55 912.09 403.00 913.00
C 418.73 913.00 434.63 912.83 450.00 912.00
C 458.19 911.56 465.97 910.78 474.00 910.00
C 477.58 909.32 481.94 908.65 486.00 908.00
C 554.53 895.28 619.25 863.79 672.00 817.00
C 651.06 814.60 629.25 812.81 608.00 812.00
C 603.68 811.84 599.32 812.00 595.00 812.00
C 589.41 812.00 583.87 810.47 579.00 810.00
C 563.47 810.00 545.34 809.01 530.00 809.00 C 514.66 808.99 497.79 809.19 484.22 812.22 C 470.66 815.26 461.88 821.51 451.08 828.08 C 440.29 834.65 435.02 844.93 424.25 850.25 C 413.47 855.56 406.66 837.63 397.23 831.77 C 387.80 825.91 377.15 818.06 365.02 814.98 C 352.89 811.89 335.48 809.00 322.00 809.00
C 311.33 809.00 300.67 809.00 290.00 809.00
C 286.67 809.00 283.33 809.00 280.00 809.00
C 276.99 809.29 272.75 810.00 269.00 810.00 Z"
        />
      </g>
      <g fill="#6A7377" fill-opacity="1.00" stroke="None">
        <path
          d="
M 595.00 812.00 
C 594.96 812.00 595.00 811.00 595.00 811.00
C 589.40 811.00 584.58 810.00 579.00 810.00
C 583.87 810.47 589.41 812.00 595.00 812.00 Z"
        />
      </g>
      <g fill="#8A9495" fill-opacity="1.00" stroke="None">
        <path
          d="
M 595.00 812.00 
C 599.32 812.00 603.68 811.84 608.00 812.00
C 604.24 811.46 599.48 811.00 595.00 811.00
C 595.00 811.00 594.96 812.00 595.00 812.00 Z"
        />
      </g>
      <g fill="#8D9293" fill-opacity="1.00" stroke="None">
        <path
          d="
M 474.00 910.00 
C 478.31 909.58 482.26 908.98 486.00 908.00
C 481.94 908.65 477.58 909.32 474.00 910.00 Z"
        />
      </g>
      <g fill="#61676B" fill-opacity="1.00" stroke="None">
        <path
          d="
M 387.00 912.00 
C 392.34 912.61 397.43 913.00 403.00 913.00
C 393.55 912.09 383.14 910.00 373.00 910.00
C 377.02 910.39 382.47 911.48 387.00 912.00 Z"
        />
      </g>
      <g fill="#AAB0B1" fill-opacity="1.00" stroke="None">
        <path
          d="
M 450.00 912.00 
C 434.63 912.83 418.73 913.00 403.00 913.00
C 397.43 913.00 392.34 912.61 387.00 912.00
C 406.83 916.25 430.53 915.96 450.00 912.00 Z"
        />
      </g>
    </svg>